<svg xmlns="http://www.w3.org/2000/svg" width="8.363" height="13.398" viewBox="0 0 8.363 13.398"><defs><style>.a{fill:#ffc843;}.b{fill:#fff;}.c{fill:#76ffd9;}.d{fill:#434c54;}</style></defs><path class="a" d="M15.47,8.671v.507l-4.031.688L7.5,9.178V8.671A1.171,1.171,0,0,1,8.67,7.5H14.3A1.171,1.171,0,0,1,15.47,8.671Zm0,0" transform="translate(-7.303 -7.304)"/><path class="a" d="M15.471,409.454v.577A1.171,1.171,0,0,1,14.3,411.2H8.67A1.171,1.171,0,0,1,7.5,410.031v-.577l3.986-.759Zm0,0" transform="translate(-7.303 -398.001)"/><path class="b" d="M15.471,71.629V81.2s-7.961,0-7.961,0a.01.01,0,0,1-.01-.01V71.639a.01.01,0,0,1,.01-.01Zm0,0" transform="translate(-7.304 -69.755)"/><path class="c" d="M60.617,76.209v5H53.859l5.769-9.536v-.043h.988Zm0,0" transform="translate(-52.45 -69.755)"/><path class="b" d="M145.388,456.066a.387.387,0,1,0,.387.388A.388.388,0,0,0,145.388,456.066Zm0,.41a.023.023,0,1,1,.023-.023A.023.023,0,0,1,145.388,456.477Zm0,0" transform="translate(-141.206 -444.132)"/><path class="d" d="M7.111,0H6.722a.2.2,0,1,0,0,.393h.389a.862.862,0,0,1,.861.861V12.144a.862.862,0,0,1-.861.861H1.254a.862.862,0,0,1-.861-.861V1.253A.862.862,0,0,1,1.254.393H5.943a.2.2,0,0,0,0-.393H1.254A1.255,1.255,0,0,0,0,1.253V12.144A1.255,1.255,0,0,0,1.254,13.4H7.111a1.255,1.255,0,0,0,1.253-1.253V1.253A1.255,1.255,0,0,0,7.111,0Zm0,0" transform="translate(-0.001)"/></svg>